<svg width="797" height="496" viewBox="0 0 797 496" fill="none" xmlns="http://www.w3.org/2000/svg">
<path d="M686.67 153.996C699.653 167.525 704.924 182.627 704.87 201.045C704.876 202.17 704.883 203.295 704.889 204.454C704.906 208.141 704.905 211.828 704.902 215.515C704.907 218.099 704.912 220.684 704.918 223.268C704.927 228.673 704.927 234.077 704.92 239.482C704.913 246.38 704.934 253.278 704.962 260.177C704.981 265.511 704.982 270.844 704.978 276.178C704.978 278.72 704.985 281.263 704.997 283.805C705.093 306.305 702.89 324.748 686.713 341.782C673.969 353.513 657.92 358.17 640.847 357.995C622.313 356.421 608.45 347.974 596.498 334.019C588.235 322.976 585.369 311.67 585.359 298.151C585.349 296.96 585.338 295.77 585.328 294.543C585.298 290.622 585.288 286.702 585.28 282.781C585.269 280.037 585.257 277.294 585.246 274.551C585.226 268.801 585.216 263.052 585.213 257.302C585.206 249.973 585.16 242.646 585.104 235.317C585.068 229.648 585.059 223.98 585.058 218.311C585.053 215.611 585.037 212.912 585.012 210.213C584.818 188.088 586.884 171.29 603 154.809C626.301 132.732 662.736 132.341 686.67 153.996ZM630.054 181.665C625.821 185.892 623.876 189.911 623.284 195.879C623.303 197.377 623.322 198.876 623.342 200.42C623.351 201.891 623.36 203.363 623.37 204.879C623.403 206.727 623.437 208.576 623.471 210.48C623.547 216.382 623.623 222.284 623.701 228.365C637.847 228.365 651.992 228.365 666.567 228.365C666.643 222.892 666.718 217.419 666.796 211.78C666.83 210.07 666.863 208.36 666.898 206.599C666.96 197.381 666.885 190.655 661.046 183.208C650.634 174.293 641.295 174.432 630.054 181.665ZM623.701 267.499C623.575 273.351 623.448 279.202 623.318 285.231C623.262 287.058 623.207 288.884 623.149 290.766C623.063 299.035 623.08 305.39 628.087 312.205C632.906 317.1 638.836 319.947 645.746 320.085C653.916 318.797 658.51 315.388 663.735 309.121C666.896 304.227 666.712 299.494 666.686 293.773C666.683 292.395 666.68 291.016 666.677 289.596C666.666 287.853 666.655 286.11 666.643 284.314C666.618 278.765 666.593 273.216 666.567 267.499C652.421 267.499 638.275 267.499 623.701 267.499Z" fill="black"/>
<path d="M522.195 154.499C534.981 168.64 539.87 183.621 539.859 202.591C539.863 203.64 539.867 204.688 539.871 205.768C539.883 209.214 539.885 212.661 539.887 216.107C539.89 218.519 539.895 220.931 539.899 223.343C539.906 228.394 539.908 233.445 539.908 238.495C539.907 244.939 539.924 251.382 539.945 257.826C539.959 262.808 539.961 267.789 539.96 272.771C539.962 275.145 539.967 277.519 539.977 279.893C540.087 310.42 540.087 310.42 533.219 323.63C532.522 325.007 531.824 326.383 531.105 327.801C522.656 341.948 509.209 350.687 493.455 354.9C475.317 357.966 460.393 354.592 444.794 345.162C430.7 334.428 423.105 319.789 420.463 302.556C420.159 298.746 420.118 294.965 420.129 291.144C420.123 290.075 420.117 289.007 420.11 287.906C420.094 284.412 420.095 280.918 420.098 277.425C420.093 274.969 420.088 272.513 420.082 270.058C420.073 264.924 420.073 259.791 420.079 254.658C420.086 248.118 420.066 241.578 420.038 235.038C420.02 229.969 420.019 224.901 420.022 219.832C420.022 217.423 420.016 215.013 420.003 212.604C419.909 191.557 421.848 175.292 434.073 157.466C444.558 146.975 458.543 138.023 473.743 137C493.193 137 507.734 141.407 522.195 154.499ZM465.684 180.281C459.721 186.799 457.854 193.292 457.938 202.117C457.944 203.434 457.95 204.75 457.956 206.106C457.978 207.756 458.001 209.405 458.023 211.104C458.074 216.377 458.124 221.649 458.175 227.082C472.628 227.082 487.08 227.082 501.97 227.082C502.045 222.085 502.121 217.089 502.198 211.941C502.231 210.389 502.265 208.836 502.299 207.236C502.363 198.383 502.333 189.323 496.433 182.195C487.802 173.608 475.186 172.195 465.684 180.281ZM458.175 266.036C458.1 271.258 458.025 276.481 457.947 281.861C457.914 283.488 457.881 285.116 457.847 286.792C457.783 295.968 457.996 303.501 463.659 311.105C469.076 315.635 474.132 318.189 481.289 318.381C488.676 317.403 493.363 314.433 498.088 308.775C502.986 300.097 502.258 291.019 502.122 281.329C502.072 276.282 502.022 271.235 501.97 266.036C487.518 266.036 473.066 266.036 458.175 266.036Z" fill="black"/>
<path d="M357.195 154.499C369.981 168.64 374.87 183.621 374.859 202.591C374.863 203.64 374.867 204.688 374.871 205.768C374.883 209.214 374.885 212.661 374.887 216.107C374.89 218.519 374.895 220.931 374.899 223.343C374.906 228.394 374.908 233.445 374.908 238.495C374.907 244.939 374.924 251.382 374.945 257.826C374.959 262.808 374.961 267.789 374.96 272.771C374.962 275.145 374.967 277.519 374.977 279.893C375.087 310.42 375.087 310.42 368.219 323.63C367.522 325.007 366.824 326.383 366.105 327.801C357.656 341.948 344.209 350.687 328.454 354.9C310.317 357.966 295.393 354.592 279.794 345.162C265.7 334.428 258.105 319.789 255.463 302.556C255.159 298.746 255.118 294.965 255.129 291.144C255.123 290.075 255.117 289.007 255.11 287.906C255.094 284.412 255.095 280.918 255.098 277.425C255.093 274.969 255.088 272.513 255.082 270.058C255.073 264.924 255.073 259.791 255.079 254.658C255.086 248.118 255.066 241.578 255.038 235.038C255.02 229.969 255.019 224.901 255.022 219.832C255.022 217.423 255.016 215.013 255.003 212.604C254.909 191.557 256.848 175.292 269.073 157.466C279.558 146.975 293.543 138.023 308.743 137C328.193 137 342.734 141.407 357.195 154.499ZM300.684 180.281C294.721 186.799 292.854 193.292 292.938 202.117C292.944 203.434 292.95 204.75 292.956 206.106C292.978 207.756 293.001 209.405 293.023 211.104C293.074 216.377 293.124 221.649 293.175 227.082C307.628 227.082 322.08 227.082 336.97 227.082C337.045 222.085 337.121 217.089 337.198 211.941C337.231 210.389 337.265 208.836 337.299 207.236C337.363 198.383 337.333 189.323 331.433 182.195C322.802 173.608 310.186 172.195 300.684 180.281ZM293.175 266.036C293.1 271.258 293.025 276.481 292.947 281.861C292.914 283.488 292.881 285.116 292.847 286.792C292.783 295.968 292.996 303.501 298.659 311.105C304.076 315.635 309.132 318.189 316.289 318.381C323.676 317.403 328.363 314.433 333.088 308.775C337.986 300.097 337.258 291.019 337.122 281.329C337.072 276.282 337.022 271.235 336.97 266.036C322.518 266.036 308.066 266.036 293.175 266.036Z" fill="black"/>
<path d="M189.811 151.592C200.243 161.344 208.362 173.945 209.636 188.513C209.735 191.606 209.76 194.692 209.757 197.787C209.765 198.957 209.773 200.127 209.782 201.332C209.805 205.185 209.81 209.037 209.812 212.889C209.82 215.583 209.829 218.276 209.837 220.97C209.852 226.613 209.856 232.256 209.855 237.899C209.855 245.1 209.888 252.3 209.93 259.501C209.958 265.065 209.962 270.629 209.961 276.194C209.964 278.847 209.975 281.5 209.994 284.152C210.134 305.679 207.991 323.781 192.566 340.177C179.309 352.634 163.734 357.276 145.732 356.987C128.532 355.079 114.469 347.835 102.878 334.981C90.2649 317.618 90.0649 300.519 90.1035 279.897C90.0979 277.268 90.0914 274.639 90.084 272.011C90.0731 266.517 90.076 261.023 90.0882 255.53C90.1023 248.527 90.0775 241.524 90.0418 234.521C90.0192 229.096 90.0197 223.672 90.0267 218.247C90.0269 215.666 90.0195 213.086 90.0043 210.506C89.895 189.025 91.7882 171.409 106.819 154.682C129.626 132.538 165.521 130.838 189.811 151.592ZM134.942 181.317C129.892 187.512 128.126 192.43 128.232 200.41C128.241 201.831 128.25 203.253 128.26 204.717C128.293 206.501 128.327 208.286 128.361 210.124C128.437 215.823 128.513 221.521 128.591 227.393C142.733 227.393 156.874 227.393 171.445 227.393C171.546 221.745 171.647 216.096 171.751 210.277C171.818 207.634 171.818 207.634 171.886 204.937C171.978 194.332 171.219 187.371 163.945 179.253C153.505 173.361 144.162 173.747 134.942 181.317ZM128.591 266.516C128.515 272.215 128.439 277.913 128.361 283.785C128.328 285.569 128.294 287.353 128.26 289.192C128.251 290.613 128.242 292.034 128.232 293.499C128.213 294.946 128.194 296.393 128.174 297.883C128.949 305.482 132.563 310.638 138.386 315.419C143.58 318.461 147.888 319.521 153.844 318.399C160.722 316.425 165.127 313.867 169.182 307.826C172.854 300.202 171.96 291.891 171.751 283.632C171.65 277.984 171.549 272.335 171.445 266.516C157.303 266.516 143.161 266.516 128.591 266.516Z" fill="black"/>
<path d="M88.5465 0.202834C91.3263 0.198131 94.106 0.192078 96.8858 0.184796C104.505 0.16881 112.125 0.172194 119.744 0.178854C127.969 0.182694 136.194 0.168665 144.419 0.157012C160.526 0.13718 176.633 0.134388 192.739 0.138031C205.833 0.140806 218.926 0.138082 232.019 0.131458C233.883 0.130532 235.747 0.129606 237.667 0.128651C241.454 0.126766 245.241 0.124877 249.027 0.122984C284.535 0.106063 320.043 0.109427 355.551 0.118915C388.025 0.126957 420.499 0.109447 452.973 0.0798644C486.327 0.0497131 519.681 0.0368675 553.035 0.042714C571.757 0.0456891 590.479 0.0418174 609.2 0.0198194C625.139 0.00128087 641.078 -0.00090173 657.016 0.0179369C665.146 0.0270983 673.275 0.028813 681.404 0.0101536C688.852 -0.00674477 696.301 -0.00190963 703.749 0.0198963C706.437 0.0240139 709.124 0.0203354 711.812 0.0078599C737.232 -0.101899 757.675 3.18767 777.063 20.8354C787.627 31.867 796.362 47.7954 796.399 63.3173C796.406 64.6524 796.413 65.9876 796.42 67.3631C796.42 69.5524 796.42 69.5524 796.419 71.7858C796.425 73.3421 796.431 74.8983 796.437 76.5017C796.454 81.732 796.46 86.9622 796.466 92.1924C796.475 95.9366 796.486 99.6807 796.497 103.425C796.526 114.672 796.543 125.919 796.557 137.167C796.564 142.468 796.572 147.769 796.58 153.07C796.606 170.701 796.629 188.331 796.64 205.962C796.643 210.535 796.646 215.109 796.649 219.682C796.65 220.819 796.651 221.956 796.651 223.127C796.664 241.527 796.704 259.928 796.754 278.328C796.806 297.234 796.834 316.141 796.839 335.047C796.842 345.656 796.855 356.265 796.895 366.874C796.932 376.86 796.938 386.845 796.922 396.83C796.921 400.489 796.931 404.148 796.952 407.806C796.98 412.815 796.969 417.822 796.948 422.831C796.974 424.984 796.974 424.984 797 427.18C796.808 446.777 787.981 462.796 775.024 477.012C756.143 495.128 732.972 495.856 708.453 495.797C705.674 495.802 702.894 495.808 700.114 495.815C692.495 495.831 684.875 495.828 677.256 495.821C669.031 495.817 660.806 495.831 652.581 495.843C636.474 495.863 620.367 495.866 604.261 495.862C591.167 495.859 578.074 495.862 564.981 495.869C563.117 495.869 561.253 495.87 559.333 495.871C555.546 495.873 551.759 495.875 547.973 495.877C512.465 495.894 476.957 495.891 441.449 495.881C408.975 495.873 376.501 495.891 344.027 495.92C310.673 495.95 277.319 495.963 243.965 495.957C225.243 495.954 206.521 495.958 187.8 495.98C171.861 495.999 155.922 496.001 139.984 495.982C131.854 495.973 123.725 495.971 115.596 495.99C108.148 496.007 100.699 496.002 93.2509 495.98C90.5632 495.976 87.8756 495.98 85.1879 495.992C59.7681 496.102 39.3252 492.812 19.9366 475.165C9.37263 464.133 0.638304 448.205 0.600837 432.683C0.593911 431.348 0.586987 430.012 0.579852 428.637C0.580139 427.177 0.580422 425.718 0.580718 424.214C0.575006 422.658 0.569292 421.102 0.563408 419.498C0.546259 414.268 0.540292 409.038 0.534376 403.808C0.524644 400.063 0.514318 396.319 0.503442 392.575C0.473571 381.328 0.457105 370.081 0.443281 358.833C0.436466 353.532 0.428126 348.231 0.419991 342.93C0.393564 325.299 0.371055 307.669 0.3598 290.038C0.356833 285.465 0.353849 280.891 0.35081 276.318C0.349683 274.613 0.349685 274.613 0.348535 272.873C0.335649 254.473 0.2963 236.072 0.245825 217.672C0.194385 198.766 0.166467 179.859 0.161509 160.953C0.158151 150.344 0.14464 139.735 0.104861 129.126C0.0675068 119.14 0.0621365 109.155 0.0780876 99.1695C0.0788566 95.511 0.0690493 91.8525 0.0477047 88.1941C0.0201241 83.1852 0.031246 78.1777 0.0516396 73.1689C0.0345991 71.7337 0.0175569 70.2985 0 68.8198C0.191585 49.2228 9.01845 33.2037 21.9755 18.9878C40.8567 0.872385 64.0279 0.144113 88.5465 0.202834ZM51.4438 59.185C48.1453 66.1324 48.1026 71.8013 48.1781 79.4013C48.1684 80.9022 48.1587 82.403 48.1488 83.9494C48.124 88.9735 48.1436 93.9964 48.1631 99.0205C48.1547 102.624 48.1437 106.228 48.1302 109.832C48.1018 119.618 48.1128 129.403 48.1325 139.188C48.1482 149.426 48.1337 159.663 48.1239 169.9C48.1106 188.194 48.1312 206.487 48.1628 224.781C48.1906 241.362 48.1857 257.943 48.1571 274.524C48.1238 293.786 48.1115 313.049 48.1298 332.312C48.1395 342.506 48.1408 352.7 48.1203 362.894C48.1023 372.477 48.1148 382.06 48.1507 391.643C48.1589 395.162 48.1565 398.681 48.1428 402.199C48.1259 407 48.1471 411.798 48.1781 416.599C48.1643 417.994 48.1504 419.389 48.1361 420.827C48.2422 429.283 49.2777 434.427 55.1811 440.934C63.0563 446.227 68.0687 447.936 77.747 447.941C78.8788 447.95 80.0107 447.959 81.1769 447.969C84.9624 447.991 88.7463 447.97 92.5317 447.948C95.2759 447.955 98.0201 447.965 100.764 447.978C108.3 448.004 115.835 447.991 123.37 447.972C131.499 447.957 139.627 447.979 147.756 447.996C163.677 448.024 179.599 448.018 195.521 448C208.46 447.986 221.398 447.984 234.337 447.991C236.178 447.992 238.018 447.993 239.915 447.994C243.654 447.996 247.393 447.998 251.132 448C286.204 448.017 321.276 447.997 356.348 447.964C386.449 447.936 416.549 447.941 446.65 447.969C481.596 448.003 516.541 448.016 551.487 447.997C555.212 447.995 558.938 447.993 562.663 447.991C564.496 447.99 566.329 447.989 568.218 447.988C581.143 447.983 594.068 447.992 606.992 448.006C622.741 448.024 638.489 448.019 654.238 447.986C662.275 447.969 670.312 447.963 678.348 447.984C685.704 448.002 693.059 447.992 700.414 447.959C703.077 447.952 705.739 447.955 708.402 447.971C712.02 447.989 715.635 447.97 719.253 447.941C721.263 447.94 723.272 447.939 725.343 447.938C733.938 446.741 739.657 443.317 745.556 436.815C748.855 429.868 748.897 424.199 748.822 416.599C748.832 415.098 748.841 413.597 748.851 412.051C748.876 407.027 748.856 402.004 748.837 396.979C748.845 393.376 748.856 389.772 748.87 386.168C748.898 376.382 748.887 366.597 748.867 356.812C748.852 346.574 748.866 336.337 748.876 326.1C748.889 307.806 748.869 289.513 748.837 271.219C748.809 254.638 748.814 238.057 748.843 221.476C748.876 202.214 748.889 182.951 748.87 163.688C748.86 153.494 748.859 143.3 748.88 133.106C748.898 123.523 748.885 113.94 748.849 104.357C748.841 100.838 748.843 97.3192 748.857 93.8005C748.874 89.0002 748.853 84.2015 748.822 79.4013C748.836 78.0061 748.85 76.6109 748.864 75.1735C748.758 66.7167 747.722 61.5725 741.819 55.0657C733.944 49.7726 728.931 48.0637 719.253 48.0588C718.121 48.0498 716.989 48.0407 715.823 48.0314C712.038 48.0087 708.254 48.0303 704.468 48.0517C701.724 48.0445 698.98 48.0347 696.236 48.0223C688.7 47.9963 681.165 48.0092 673.63 48.0284C665.501 48.0425 657.373 48.0208 649.244 48.0037C633.323 47.976 617.401 47.982 601.479 48C588.54 48.0141 575.602 48.016 562.663 48.0092C560.822 48.0082 558.982 48.0073 557.085 48.0063C553.346 48.0043 549.607 48.0023 545.868 48.0003C510.796 47.9825 475.724 48.0029 440.652 48.0364C410.551 48.0642 380.451 48.0593 350.35 48.0306C315.404 47.9973 280.459 47.9842 245.513 48.0033C241.788 48.0053 238.062 48.0073 234.337 48.0092C231.587 48.0106 231.587 48.0106 228.782 48.0121C215.857 48.0175 202.932 48.0084 190.008 47.9938C174.259 47.9763 158.511 47.981 142.762 48.0142C134.725 48.0306 126.688 48.0369 118.651 48.0164C111.296 47.9978 103.941 48.008 96.5857 48.0411C93.9232 48.0481 91.2606 48.0445 88.5982 48.0294C84.9803 48.0105 81.3647 48.0299 77.747 48.0588C75.7372 48.0598 73.7275 48.0608 71.6568 48.0619C63.0621 49.2589 57.3431 52.6828 51.4438 59.185Z" fill="black"/>
</svg>
