<svg width="120" height="219" viewBox="0 0 120 219" fill="none" xmlns="http://www.w3.org/2000/svg">
<path d="M102.195 17.499C114.981 31.64 119.87 46.6215 119.859 65.5915C119.863 66.6398 119.867 67.6881 119.871 68.7682C119.883 72.2144 119.885 75.6606 119.887 79.1068C119.89 81.5189 119.895 83.931 119.899 86.3431C119.906 91.3938 119.908 96.4445 119.908 101.495C119.907 107.939 119.924 114.382 119.945 120.826C119.959 125.808 119.961 130.789 119.96 135.771C119.962 138.145 119.967 140.519 119.977 142.893C120.087 173.42 120.087 173.42 113.219 186.63C112.522 188.007 111.824 189.383 111.105 190.801C102.656 204.948 89.209 213.687 73.4545 217.9C55.3172 220.966 40.3933 217.592 24.7938 208.162C10.7002 197.428 3.10495 182.789 0.463429 165.556C0.159385 161.746 0.117537 157.965 0.129303 154.144C0.123085 153.075 0.116868 152.007 0.110462 150.906C0.0937068 147.412 0.0947098 143.918 0.0975236 140.425C0.0927865 137.969 0.0875115 135.513 0.0817269 133.058C0.0726808 127.924 0.0729798 122.791 0.0794065 117.658C0.086447 111.118 0.0658611 104.578 0.0376222 98.0375C0.0195974 92.9691 0.0186478 87.9008 0.0224287 82.8323C0.021809 80.4228 0.0155313 78.0134 0.00319783 75.604C-0.0913204 54.5574 1.84781 38.2921 14.0732 20.4662C24.5578 9.9747 38.5433 1.02251 53.7431 0C73.1934 0 87.7344 4.40716 102.195 17.499ZM45.6837 43.2815C39.7205 49.7989 37.8539 56.2923 37.9379 65.1171C37.944 66.4335 37.95 67.7499 37.9563 69.1061C37.9784 70.7556 38.0006 72.405 38.0234 74.1044C38.0736 79.3769 38.1238 84.6494 38.1755 90.0817C52.6277 90.0817 67.0799 90.0817 81.9701 90.0817C82.0454 85.0854 82.1207 80.089 82.1982 74.9413C82.2314 73.3887 82.2647 71.836 82.2989 70.2364C82.3631 61.3831 82.3333 52.323 76.4331 45.1954C67.8015 36.6077 55.1857 35.1953 45.6837 43.2815ZM38.1755 129.036C38.1002 134.258 38.0249 139.481 37.9474 144.861C37.9142 146.488 37.8809 148.116 37.8467 149.792C37.7829 158.968 37.9962 166.501 43.6593 174.105C49.0758 178.635 54.1321 181.189 61.2893 181.381C68.6763 180.403 73.3625 177.433 78.0877 171.775C82.9863 163.097 82.2585 154.019 82.1222 144.329C82.072 139.282 82.0218 134.235 81.9701 129.036C67.5179 129.036 53.0657 129.036 38.1755 129.036Z" fill="black"/>
</svg>
