<svg width="750" height="466" viewBox="0 0 750 466" fill="none" xmlns="http://www.w3.org/2000/svg">
<path d="M589.195 141.499C601.981 155.64 606.87 170.621 606.859 189.591C606.863 190.64 606.867 191.688 606.871 192.768C606.883 196.214 606.885 199.661 606.887 203.107C606.89 205.519 606.895 207.931 606.899 210.343C606.906 215.394 606.908 220.445 606.908 225.495C606.907 231.939 606.924 238.382 606.945 244.826C606.959 249.808 606.961 254.789 606.96 259.771C606.962 262.145 606.967 264.519 606.977 266.893C607.087 297.42 607.087 297.42 600.219 310.63C599.522 312.007 598.824 313.383 598.105 314.801C589.656 328.948 576.209 337.687 560.455 341.9C542.317 344.966 527.393 341.592 511.794 332.162C497.7 321.428 490.105 306.789 487.463 289.556C487.159 285.746 487.118 281.965 487.129 278.144C487.123 277.075 487.117 276.007 487.11 274.906C487.094 271.412 487.095 267.918 487.098 264.425C487.093 261.969 487.088 259.513 487.082 257.058C487.073 251.924 487.073 246.791 487.079 241.658C487.086 235.118 487.066 228.578 487.038 222.038C487.02 216.969 487.019 211.901 487.022 206.832C487.022 204.423 487.016 202.013 487.003 199.604C486.909 178.557 488.848 162.292 501.073 144.466C511.558 133.975 525.543 125.023 540.743 124C560.193 124 574.734 128.407 589.195 141.499ZM532.684 167.281C526.721 173.799 524.854 180.292 524.938 189.117C524.944 190.434 524.95 191.75 524.956 193.106C524.978 194.756 525.001 196.405 525.023 198.104C525.074 203.377 525.124 208.649 525.175 214.082C539.628 214.082 554.08 214.082 568.97 214.082C569.045 209.085 569.121 204.089 569.198 198.941C569.231 197.389 569.265 195.836 569.299 194.236C569.363 185.383 569.333 176.323 563.433 169.195C554.802 160.608 542.186 159.195 532.684 167.281ZM525.175 253.036C525.1 258.258 525.025 263.481 524.947 268.861C524.914 270.488 524.881 272.116 524.847 273.792C524.783 282.968 524.996 290.501 530.659 298.105C536.076 302.635 541.132 305.189 548.289 305.381C555.676 304.403 560.363 301.433 565.088 295.775C569.986 287.097 569.258 278.019 569.122 268.329C569.072 263.282 569.022 258.235 568.97 253.036C554.518 253.036 540.066 253.036 525.175 253.036Z" fill="black"/>
<path d="M417.195 140.499C429.981 154.64 434.87 169.621 434.859 188.591C434.863 189.64 434.867 190.688 434.871 191.768C434.883 195.214 434.885 198.661 434.887 202.107C434.89 204.519 434.895 206.931 434.899 209.343C434.906 214.394 434.908 219.445 434.908 224.495C434.907 230.939 434.924 237.382 434.945 243.826C434.959 248.808 434.961 253.789 434.96 258.771C434.962 261.145 434.967 263.519 434.977 265.893C435.087 296.42 435.087 296.42 428.219 309.63C427.522 311.007 426.824 312.383 426.105 313.801C417.656 327.948 404.209 336.687 388.454 340.9C370.317 343.966 355.393 340.592 339.794 331.162C325.7 320.428 318.105 305.789 315.463 288.556C315.159 284.746 315.118 280.965 315.129 277.144C315.123 276.075 315.117 275.007 315.11 273.906C315.094 270.412 315.095 266.918 315.098 263.425C315.093 260.969 315.088 258.513 315.082 256.058C315.073 250.924 315.073 245.791 315.079 240.658C315.086 234.118 315.066 227.578 315.038 221.038C315.02 215.969 315.019 210.901 315.022 205.832C315.022 203.423 315.016 201.013 315.003 198.604C314.909 177.557 316.848 161.292 329.073 143.466C339.558 132.975 353.543 124.023 368.743 123C388.193 123 402.734 127.407 417.195 140.499ZM360.684 166.281C354.721 172.799 352.854 179.292 352.938 188.117C352.944 189.434 352.95 190.75 352.956 192.106C352.978 193.756 353.001 195.405 353.023 197.104C353.074 202.377 353.124 207.649 353.175 213.082C367.628 213.082 382.08 213.082 396.97 213.082C397.045 208.085 397.121 203.089 397.198 197.941C397.231 196.389 397.265 194.836 397.299 193.236C397.363 184.383 397.333 175.323 391.433 168.195C382.802 159.608 370.186 158.195 360.684 166.281ZM353.175 252.036C353.1 257.258 353.025 262.481 352.947 267.861C352.914 269.488 352.881 271.116 352.847 272.792C352.783 281.968 352.996 289.501 358.659 297.105C364.076 301.635 369.132 304.189 376.289 304.381C383.676 303.403 388.363 300.433 393.088 294.775C397.986 286.097 397.258 277.019 397.122 267.329C397.072 262.282 397.022 257.235 396.97 252.036C382.518 252.036 368.066 252.036 353.175 252.036Z" fill="black"/>
<path d="M241.811 136.592C252.243 146.344 260.362 158.945 261.636 173.513C261.735 176.606 261.76 179.692 261.757 182.787C261.765 183.957 261.773 185.127 261.782 186.332C261.805 190.185 261.81 194.037 261.812 197.889C261.82 200.583 261.829 203.276 261.837 205.97C261.852 211.613 261.856 217.256 261.855 222.899C261.855 230.1 261.888 237.3 261.93 244.501C261.958 250.065 261.962 255.629 261.961 261.194C261.964 263.847 261.975 266.5 261.994 269.152C262.134 290.679 259.991 308.781 244.566 325.177C231.309 337.634 215.734 342.276 197.732 341.987C180.532 340.079 166.469 332.835 154.878 319.981C142.265 302.618 142.065 285.519 142.103 264.897C142.098 262.268 142.091 259.639 142.084 257.011C142.073 251.517 142.076 246.023 142.088 240.53C142.102 233.527 142.078 226.524 142.042 219.521C142.019 214.096 142.02 208.672 142.027 203.247C142.027 200.666 142.02 198.086 142.004 195.506C141.895 174.025 143.788 156.409 158.819 139.682C181.626 117.538 217.521 115.838 241.811 136.592ZM186.942 166.317C181.892 172.512 180.126 177.43 180.232 185.41C180.241 186.831 180.25 188.253 180.26 189.717C180.293 191.501 180.327 193.286 180.361 195.124C180.437 200.823 180.513 206.521 180.591 212.393C194.733 212.393 208.874 212.393 223.445 212.393C223.546 206.745 223.647 201.096 223.751 195.277C223.818 192.634 223.818 192.634 223.886 189.937C223.978 179.332 223.219 172.371 215.945 164.253C205.505 158.361 196.162 158.747 186.942 166.317ZM180.591 251.516C180.515 257.215 180.439 262.913 180.361 268.785C180.328 270.569 180.294 272.353 180.26 274.192C180.251 275.613 180.242 277.034 180.232 278.499C180.213 279.946 180.194 281.393 180.174 282.883C180.949 290.482 184.563 295.638 190.386 300.419C195.58 303.461 199.888 304.521 205.844 303.399C212.722 301.425 217.127 298.867 221.182 292.826C224.854 285.202 223.96 276.891 223.751 268.632C223.65 262.984 223.549 257.335 223.445 251.516C209.303 251.516 195.161 251.516 180.591 251.516Z" fill="black"/>
<path d="M83.3248 0.190565C85.9407 0.186147 88.5565 0.18046 91.1723 0.173619C98.3425 0.1586 105.513 0.161779 112.683 0.168036C120.423 0.171644 128.163 0.158464 135.903 0.147516C151.06 0.128883 166.216 0.12626 181.373 0.129682C193.695 0.132289 206.016 0.12973 218.337 0.123507C220.091 0.122637 221.845 0.121767 223.652 0.12087C227.215 0.119099 230.779 0.117324 234.342 0.115546C267.756 0.0996478 301.169 0.102809 334.583 0.111723C365.142 0.119279 395.701 0.102827 426.26 0.0750339C457.647 0.0467063 489.035 0.0346376 520.422 0.0401305C538.04 0.0429257 555.657 0.0392881 573.275 0.0186206C588.274 0.0012034 603.273 -0.00084719 618.271 0.0168521C625.921 0.0254593 633.571 0.0270703 641.22 0.00953948C648.23 -0.00633682 655.239 -0.00179412 662.248 0.0186929C664.777 0.0225614 667.307 0.0191054 669.836 0.0073845C693.756 -0.0957362 712.994 2.99487 731.239 19.5752C741.18 29.9396 749.399 44.9045 749.435 59.4876C749.441 60.742 749.448 61.9964 749.454 63.2888C749.454 65.3456 749.454 65.3456 749.453 67.4439C749.459 68.9061 749.464 70.3682 749.47 71.8746C749.486 76.7885 749.492 81.7024 749.497 86.6163C749.506 90.1339 749.516 93.6516 749.526 97.1692C749.554 107.736 749.57 118.303 749.583 128.87C749.589 133.851 749.597 138.831 749.605 143.812C749.63 160.376 749.651 176.94 749.661 193.504C749.664 197.801 749.667 202.098 749.67 206.395C749.671 207.463 749.671 208.531 749.672 209.631C749.684 226.919 749.721 244.206 749.769 261.494C749.817 279.256 749.843 297.019 749.848 314.782C749.851 324.749 749.864 334.717 749.901 344.684C749.936 354.066 749.941 363.447 749.926 372.829C749.926 376.266 749.935 379.703 749.955 383.14C749.981 387.846 749.971 392.551 749.951 397.257C749.975 399.279 749.975 399.279 750 401.343C749.82 419.754 741.513 434.805 729.32 448.161C711.553 465.18 689.748 465.865 666.675 465.809C664.059 465.814 661.443 465.82 658.828 465.826C651.657 465.841 644.487 465.838 637.317 465.832C629.577 465.828 621.837 465.842 614.097 465.852C598.94 465.871 583.784 465.874 568.627 465.87C556.305 465.868 543.984 465.87 531.663 465.876C529.909 465.877 528.155 465.878 526.348 465.879C522.785 465.881 519.221 465.883 515.658 465.884C482.244 465.9 448.83 465.897 415.417 465.888C384.858 465.881 354.299 465.897 323.74 465.925C292.352 465.953 260.965 465.965 229.578 465.96C211.96 465.957 194.343 465.961 176.725 465.981C161.726 465.999 146.727 466.001 131.729 465.983C124.079 465.975 116.429 465.973 108.779 465.99C101.77 466.006 94.7611 466.002 87.7518 465.981C85.2226 465.977 82.6934 465.981 80.1643 465.993C56.2435 466.096 37.0061 463.005 18.7609 446.425C8.81992 436.06 0.600662 421.095 0.565405 406.512C0.558888 405.258 0.552372 404.004 0.545658 402.711C0.545927 401.34 0.546194 399.969 0.546472 398.556C0.541097 397.094 0.535721 395.632 0.530183 394.125C0.514045 389.211 0.50843 384.298 0.502863 379.384C0.493705 375.866 0.483988 372.348 0.473753 368.831C0.445644 358.264 0.430149 347.697 0.41714 337.13C0.410727 332.149 0.402879 327.169 0.395224 322.188C0.370355 305.624 0.349173 289.06 0.338582 272.495C0.335791 268.199 0.332982 263.902 0.330123 259.605C0.329062 258.003 0.329064 258.003 0.327981 256.369C0.315855 239.081 0.278827 221.794 0.231328 204.506C0.182922 186.744 0.15665 168.981 0.151984 151.218C0.148825 141.251 0.13611 131.283 0.0986777 121.316C0.0635259 111.934 0.0584723 102.553 0.0734827 93.1713C0.0742064 89.7341 0.0649774 86.2969 0.0448915 82.8597C0.0189374 78.1538 0.0294034 73.4493 0.0485944 68.7433C0.0325588 67.3949 0.0165215 66.0466 0 64.6573C0.180287 46.2456 8.48662 31.1954 20.6796 17.8393C38.4473 0.81962 60.2521 0.135396 83.3248 0.190565ZM48.4101 55.6052C45.3061 62.1325 45.266 67.4585 45.337 74.5988C45.3279 76.0089 45.3188 77.419 45.3094 78.8718C45.2861 83.592 45.3045 88.3111 45.3229 93.0314C45.315 96.4173 45.3046 99.8032 45.2919 103.189C45.2652 112.383 45.2755 121.576 45.2941 130.77C45.3089 140.388 45.2952 150.006 45.286 159.624C45.2735 176.811 45.2928 193.998 45.3226 211.185C45.3487 226.763 45.3442 242.341 45.3172 257.919C45.2859 276.017 45.2743 294.115 45.2915 312.212C45.3007 321.79 45.3019 331.367 45.2826 340.944C45.2657 349.948 45.2774 358.951 45.3112 367.955C45.3189 371.261 45.3167 374.567 45.3038 377.873C45.2878 382.383 45.3078 386.891 45.337 391.401C45.324 392.712 45.3109 394.023 45.2975 395.373C45.3973 403.319 46.3717 408.152 51.927 414.265C59.3378 419.238 64.0547 420.843 73.1621 420.848C74.2273 420.856 75.2924 420.865 76.3898 420.874C79.952 420.895 83.5128 420.875 87.075 420.855C89.6574 420.861 92.2397 420.871 94.8221 420.882C101.913 420.907 109.004 420.895 116.095 420.877C123.744 420.863 131.393 420.884 139.042 420.9C154.025 420.926 169.008 420.92 183.991 420.903C196.166 420.89 208.342 420.888 220.518 420.895C222.25 420.895 223.982 420.896 225.767 420.897C229.285 420.899 232.804 420.901 236.323 420.903C269.326 420.92 302.33 420.9 335.334 420.869C363.659 420.843 391.985 420.848 420.311 420.874C453.195 420.906 486.08 420.918 518.965 420.9C522.471 420.898 525.976 420.896 529.482 420.895C531.207 420.894 532.932 420.893 534.71 420.892C546.872 420.887 559.035 420.895 571.197 420.909C586.017 420.925 600.837 420.921 615.657 420.89C623.22 420.875 630.783 420.869 638.346 420.888C645.267 420.905 652.188 420.896 659.11 420.865C661.616 420.858 664.121 420.861 666.627 420.876C670.031 420.893 673.433 420.875 676.838 420.848C678.729 420.847 680.62 420.846 682.569 420.845C690.657 419.72 696.039 416.504 701.59 410.395C704.694 403.867 704.734 398.541 704.663 391.401C704.672 389.991 704.681 388.581 704.691 387.128C704.714 382.408 704.695 377.689 704.677 372.969C704.685 369.583 704.695 366.197 704.708 362.811C704.735 353.617 704.724 344.424 704.706 335.23C704.691 325.612 704.705 315.994 704.714 306.376C704.726 289.189 704.707 272.002 704.677 254.815C704.651 239.237 704.656 223.659 704.683 208.081C704.714 189.983 704.726 171.885 704.708 153.788C704.699 144.21 704.698 134.633 704.717 125.056C704.734 116.052 704.723 107.049 704.689 98.0448C704.681 94.7389 704.683 91.433 704.696 88.1271C704.712 83.6171 704.692 79.1087 704.663 74.5988C704.676 73.288 704.689 71.9772 704.703 70.6267C704.603 62.6814 703.628 57.8483 698.073 51.7351C690.662 46.7621 685.945 45.1566 676.838 45.152C675.773 45.1435 674.708 45.135 673.61 45.1263C670.048 45.105 666.487 45.1252 662.925 45.1454C660.343 45.1386 657.76 45.1293 655.178 45.1177C648.087 45.0933 640.996 45.1054 633.905 45.1235C626.256 45.1367 618.607 45.1163 610.958 45.1002C595.975 45.0742 580.992 45.0798 566.009 45.0968C553.833 45.11 541.658 45.1118 529.482 45.1054C527.75 45.1045 526.018 45.1036 524.233 45.1027C520.715 45.1008 517.196 45.0989 513.677 45.097C480.674 45.0803 447.67 45.0995 414.666 45.1309C386.341 45.1571 358.015 45.1525 329.689 45.1256C296.805 45.0943 263.92 45.0819 231.035 45.0999C227.529 45.1018 224.024 45.1036 220.518 45.1054C217.93 45.1068 217.93 45.1068 215.29 45.1081C203.128 45.1132 190.965 45.1047 178.803 45.0909C163.983 45.0745 149.163 45.0789 134.343 45.1101C126.78 45.1255 119.217 45.1315 111.654 45.1122C104.733 45.0947 97.8116 45.1043 90.8899 45.1354C88.3844 45.1419 85.8789 45.1386 83.3734 45.1244C79.969 45.1067 76.5665 45.1249 73.1621 45.152C71.2709 45.153 69.3797 45.1539 67.4311 45.1549C59.3433 46.2796 53.9615 49.4964 48.4101 55.6052Z" fill="black"/>
</svg>
