<svg width="750" height="466" viewBox="0 0 750 466" fill="none" xmlns="http://www.w3.org/2000/svg">
<path d="M422.811 137.592C433.243 147.344 441.362 159.945 442.636 174.513C442.735 177.606 442.76 180.692 442.757 183.787C442.765 184.957 442.773 186.127 442.782 187.332C442.805 191.185 442.81 195.037 442.812 198.889C442.82 201.583 442.829 204.276 442.837 206.97C442.852 212.613 442.856 218.256 442.855 223.899C442.855 231.1 442.888 238.3 442.93 245.501C442.958 251.065 442.962 256.629 442.961 262.194C442.964 264.847 442.975 267.499 442.994 270.152C443.134 291.679 440.991 309.781 425.566 326.177C412.309 338.634 396.734 343.276 378.732 342.987C361.532 341.079 347.469 333.835 335.878 320.981C323.265 303.618 323.065 286.519 323.103 265.897C323.098 263.268 323.091 260.639 323.084 258.011C323.073 252.517 323.076 247.023 323.088 241.53C323.102 234.527 323.078 227.524 323.042 220.521C323.019 215.096 323.02 209.672 323.027 204.247C323.027 201.666 323.02 199.086 323.004 196.506C322.895 175.025 324.788 157.409 339.819 140.682C362.626 118.538 398.521 116.838 422.811 137.592ZM367.942 167.317C362.892 173.512 361.126 178.43 361.232 186.41C361.241 187.831 361.25 189.253 361.26 190.717C361.293 192.501 361.327 194.286 361.361 196.124C361.437 201.823 361.513 207.521 361.591 213.393C375.733 213.393 389.874 213.393 404.445 213.393C404.546 207.745 404.647 202.096 404.751 196.277C404.818 193.634 404.818 193.634 404.886 190.937C404.978 180.332 404.219 173.371 396.945 165.253C386.505 159.361 377.162 159.747 367.942 167.317ZM361.591 252.516C361.515 258.215 361.439 263.913 361.361 269.785C361.328 271.569 361.294 273.353 361.26 275.192C361.251 276.613 361.242 278.034 361.232 279.499C361.213 280.946 361.194 282.393 361.174 283.883C361.949 291.482 365.563 296.638 371.386 301.419C376.58 304.461 380.888 305.521 386.844 304.399C393.722 302.425 398.127 299.867 402.183 293.826C405.854 286.202 404.96 277.891 404.751 269.632C404.65 263.984 404.549 258.335 404.445 252.516C390.303 252.516 376.161 252.516 361.591 252.516Z" fill="black"/>
<path d="M83.3248 0.190565C85.9407 0.186147 88.5565 0.18046 91.1723 0.173619C98.3425 0.1586 105.513 0.161779 112.683 0.168036C120.423 0.171644 128.163 0.158464 135.903 0.147516C151.06 0.128883 166.216 0.12626 181.373 0.129682C193.695 0.132289 206.016 0.12973 218.337 0.123507C220.091 0.122637 221.845 0.121767 223.652 0.12087C227.215 0.119099 230.779 0.117324 234.342 0.115546C267.756 0.0996478 301.169 0.102809 334.583 0.111723C365.142 0.119279 395.701 0.102827 426.26 0.0750339C457.647 0.0467063 489.035 0.0346376 520.422 0.0401305C538.04 0.0429257 555.657 0.0392881 573.275 0.0186206C588.274 0.0012034 603.273 -0.00084719 618.271 0.0168521C625.921 0.0254593 633.571 0.0270703 641.22 0.00953948C648.23 -0.00633682 655.239 -0.00179412 662.248 0.0186929C664.777 0.0225614 667.307 0.0191054 669.836 0.0073845C693.756 -0.0957362 712.994 2.99487 731.239 19.5752C741.18 29.9396 749.399 44.9045 749.435 59.4876C749.441 60.742 749.448 61.9964 749.454 63.2888C749.454 65.3456 749.454 65.3456 749.453 67.4439C749.459 68.9061 749.464 70.3682 749.47 71.8746C749.486 76.7885 749.492 81.7024 749.497 86.6163C749.506 90.1339 749.516 93.6516 749.526 97.1692C749.554 107.736 749.57 118.303 749.583 128.87C749.589 133.851 749.597 138.831 749.605 143.812C749.63 160.376 749.651 176.94 749.661 193.504C749.664 197.801 749.667 202.098 749.67 206.395C749.671 207.463 749.671 208.531 749.672 209.631C749.684 226.919 749.721 244.206 749.769 261.494C749.817 279.256 749.843 297.019 749.848 314.782C749.851 324.749 749.864 334.717 749.901 344.684C749.936 354.066 749.941 363.447 749.926 372.829C749.926 376.266 749.935 379.703 749.955 383.14C749.981 387.846 749.971 392.551 749.951 397.257C749.975 399.279 749.975 399.279 750 401.343C749.82 419.754 741.513 434.805 729.32 448.161C711.553 465.18 689.748 465.865 666.675 465.809C664.059 465.814 661.443 465.82 658.828 465.826C651.657 465.841 644.487 465.838 637.317 465.832C629.577 465.828 621.837 465.842 614.097 465.852C598.94 465.871 583.784 465.874 568.627 465.87C556.305 465.868 543.984 465.87 531.663 465.876C529.909 465.877 528.155 465.878 526.348 465.879C522.785 465.881 519.221 465.883 515.658 465.884C482.244 465.9 448.83 465.897 415.417 465.888C384.858 465.881 354.299 465.897 323.74 465.925C292.352 465.953 260.965 465.965 229.578 465.96C211.96 465.957 194.343 465.961 176.725 465.981C161.726 465.999 146.727 466.001 131.729 465.983C124.079 465.975 116.429 465.973 108.779 465.99C101.77 466.006 94.7611 466.002 87.7518 465.981C85.2226 465.977 82.6934 465.981 80.1643 465.993C56.2435 466.096 37.0061 463.005 18.7609 446.425C8.81992 436.06 0.600662 421.095 0.565405 406.512C0.558888 405.258 0.552372 404.004 0.545658 402.711C0.545927 401.34 0.546194 399.969 0.546472 398.556C0.541097 397.094 0.535721 395.632 0.530183 394.125C0.514045 389.211 0.50843 384.298 0.502863 379.384C0.493705 375.866 0.483988 372.348 0.473753 368.831C0.445644 358.264 0.430149 347.697 0.41714 337.13C0.410727 332.149 0.402879 327.169 0.395224 322.188C0.370355 305.624 0.349173 289.06 0.338582 272.495C0.335791 268.199 0.332982 263.902 0.330123 259.605C0.329062 258.003 0.329064 258.003 0.327981 256.369C0.315855 239.081 0.278827 221.794 0.231328 204.506C0.182922 186.744 0.15665 168.981 0.151984 151.218C0.148825 141.251 0.13611 131.283 0.0986777 121.316C0.0635259 111.934 0.0584723 102.553 0.0734827 93.1713C0.0742064 89.7341 0.0649774 86.2969 0.0448915 82.8597C0.0189374 78.1538 0.0294034 73.4493 0.0485944 68.7433C0.0325588 67.3949 0.0165215 66.0466 0 64.6573C0.180287 46.2456 8.48662 31.1954 20.6796 17.8393C38.4473 0.81962 60.2521 0.135396 83.3248 0.190565ZM48.4101 55.6052C45.3061 62.1325 45.266 67.4585 45.337 74.5988C45.3279 76.0089 45.3188 77.419 45.3094 78.8718C45.2861 83.592 45.3045 88.3111 45.3229 93.0314C45.315 96.4173 45.3046 99.8032 45.2919 103.189C45.2652 112.383 45.2755 121.576 45.2941 130.77C45.3089 140.388 45.2952 150.006 45.286 159.624C45.2735 176.811 45.2928 193.998 45.3226 211.185C45.3487 226.763 45.3442 242.341 45.3172 257.919C45.2859 276.017 45.2743 294.115 45.2915 312.212C45.3007 321.79 45.3019 331.367 45.2826 340.944C45.2657 349.948 45.2774 358.951 45.3112 367.955C45.3189 371.261 45.3167 374.567 45.3038 377.873C45.2878 382.383 45.3078 386.891 45.337 391.401C45.324 392.712 45.3109 394.023 45.2975 395.373C45.3973 403.319 46.3717 408.152 51.927 414.265C59.3378 419.238 64.0547 420.843 73.1621 420.848C74.2273 420.856 75.2924 420.865 76.3898 420.874C79.952 420.895 83.5128 420.875 87.075 420.855C89.6574 420.861 92.2397 420.871 94.8221 420.882C101.913 420.907 109.004 420.895 116.095 420.877C123.744 420.863 131.393 420.884 139.042 420.9C154.025 420.926 169.008 420.92 183.991 420.903C196.166 420.89 208.342 420.888 220.518 420.895C222.25 420.895 223.982 420.896 225.767 420.897C229.285 420.899 232.804 420.901 236.323 420.903C269.326 420.92 302.33 420.9 335.334 420.869C363.659 420.843 391.985 420.848 420.311 420.874C453.195 420.906 486.08 420.918 518.965 420.9C522.471 420.898 525.976 420.896 529.482 420.895C531.207 420.894 532.932 420.893 534.71 420.892C546.872 420.887 559.035 420.895 571.197 420.909C586.017 420.925 600.837 420.921 615.657 420.89C623.22 420.875 630.783 420.869 638.346 420.888C645.267 420.905 652.188 420.896 659.11 420.865C661.616 420.858 664.121 420.861 666.627 420.876C670.031 420.893 673.433 420.875 676.838 420.848C678.729 420.847 680.62 420.846 682.569 420.845C690.657 419.72 696.039 416.504 701.59 410.395C704.694 403.867 704.734 398.541 704.663 391.401C704.672 389.991 704.681 388.581 704.691 387.128C704.714 382.408 704.695 377.689 704.677 372.969C704.685 369.583 704.695 366.197 704.708 362.811C704.735 353.617 704.724 344.424 704.706 335.23C704.691 325.612 704.705 315.994 704.714 306.376C704.726 289.189 704.707 272.002 704.677 254.815C704.651 239.237 704.656 223.659 704.683 208.081C704.714 189.983 704.726 171.885 704.708 153.788C704.699 144.21 704.698 134.633 704.717 125.056C704.734 116.052 704.723 107.049 704.689 98.0448C704.681 94.7389 704.683 91.433 704.696 88.1271C704.712 83.6171 704.692 79.1087 704.663 74.5988C704.676 73.288 704.689 71.9772 704.703 70.6267C704.603 62.6814 703.628 57.8483 698.073 51.7351C690.662 46.7621 685.945 45.1566 676.838 45.152C675.773 45.1435 674.708 45.135 673.61 45.1263C670.048 45.105 666.487 45.1252 662.925 45.1454C660.343 45.1386 657.76 45.1293 655.178 45.1177C648.087 45.0933 640.996 45.1054 633.905 45.1235C626.256 45.1367 618.607 45.1163 610.958 45.1002C595.975 45.0742 580.992 45.0798 566.009 45.0968C553.833 45.11 541.658 45.1118 529.482 45.1054C527.75 45.1045 526.018 45.1036 524.233 45.1027C520.715 45.1008 517.196 45.0989 513.677 45.097C480.674 45.0803 447.67 45.0995 414.666 45.1309C386.341 45.1571 358.015 45.1525 329.689 45.1256C296.805 45.0943 263.92 45.0819 231.035 45.0999C227.529 45.1018 224.024 45.1036 220.518 45.1054C217.93 45.1068 217.93 45.1068 215.29 45.1081C203.128 45.1132 190.965 45.1047 178.803 45.0909C163.983 45.0745 149.163 45.0789 134.343 45.1101C126.78 45.1255 119.217 45.1315 111.654 45.1122C104.733 45.0947 97.8116 45.1043 90.8899 45.1354C88.3844 45.1419 85.8789 45.1386 83.3734 45.1244C79.969 45.1067 76.5665 45.1249 73.1621 45.152C71.2709 45.153 69.3797 45.1539 67.4311 45.1549C59.3433 46.2796 53.9615 49.4964 48.4101 55.6052Z" fill="black"/>
</svg>
